<svg xmlns="http://www.w3.org/2000/svg" width="63.434" height="56" viewBox="0 0 63.434 56">
  <g id="vision" transform="translate(-0.001 -30)">
    <path id="Path_27" data-name="Path 27" d="M62.971,134.369a55.863,55.863,0,0,0-9.072-7.891c-14.7-10.336-29.074-10.751-44.364,0a55.865,55.865,0,0,0-9.072,7.891,1.858,1.858,0,0,0,0,2.455,55.864,55.864,0,0,0,9.072,7.891c14.7,10.336,29.074,10.751,44.364,0a55.876,55.876,0,0,0,9.072-7.891A1.858,1.858,0,0,0,62.971,134.369ZM45.215,135.6a13.5,13.5,0,1,1-13.5-13.338A13.435,13.435,0,0,1,45.215,135.6Zm-40.786,0a53,53,0,0,1,13.062-9.592,16.885,16.885,0,0,0,0,19.184A53.012,53.012,0,0,1,4.429,135.6Zm41.515,9.592a16.885,16.885,0,0,0,0-19.184A53.013,53.013,0,0,1,59.006,135.6,53,53,0,0,1,45.944,145.189Z" transform="translate(0 -77.597)" fill="#8795af"/>
    <path id="Path_28" data-name="Path 28" d="M192.353,214.717h1.089l-2.947,2.947-2.406-2.406a1.859,1.859,0,0,0-2.628,0l-3.685,3.685a1.858,1.858,0,0,0,2.628,2.628l2.371-2.371,2.406,2.406a1.858,1.858,0,0,0,2.628,0l4.261-4.261v.469a1.858,1.858,0,1,0,3.717,0v-4.956A1.858,1.858,0,0,0,197.928,211h-5.575a1.858,1.858,0,1,0,0,3.717Z" transform="translate(-158.777 -158.575)" fill="#8795af"/>
    <path id="Path_29" data-name="Path 29" d="M242.858,37.434a1.858,1.858,0,0,0,1.858-1.858V31.858a1.858,1.858,0,1,0-3.717,0v3.717A1.858,1.858,0,0,0,242.858,37.434Z" transform="translate(-211.141)" fill="#8795af"/>
    <path id="Path_30" data-name="Path 30" d="M347.427,68.973a1.858,1.858,0,0,0,2.539-.68l1.858-3.219a1.858,1.858,0,0,0-3.219-1.858l-1.858,3.219A1.858,1.858,0,0,0,347.427,68.973Z" transform="translate(-303.568 -28.286)" fill="#8795af"/>
    <path id="Path_31" data-name="Path 31" d="M242.858,421A1.858,1.858,0,0,0,241,422.858V426.7a1.858,1.858,0,0,0,3.717,0v-3.841A1.858,1.858,0,0,0,242.858,421Z" transform="translate(-211.141 -342.558)" fill="#8795af"/>
    <path id="Path_32" data-name="Path 32" d="M349.465,393.791a1.858,1.858,0,0,0-3.219,1.858l1.92,3.326a1.858,1.858,0,0,0,3.219-1.858Z" transform="translate(-303.13 -317.905)" fill="#8795af"/>
    <path id="Path_33" data-name="Path 33" d="M122.605,68.293a1.858,1.858,0,0,0,3.219-1.858l-1.858-3.219a1.858,1.858,0,1,0-3.219,1.858Z" transform="translate(-105.568 -28.286)" fill="#8795af"/>
    <path id="Path_34" data-name="Path 34" d="M125.206,393.111a1.858,1.858,0,0,0-2.539.68l-1.92,3.326a1.858,1.858,0,0,0,3.219,1.858l1.92-3.326A1.858,1.858,0,0,0,125.206,393.111Z" transform="translate(-105.568 -317.905)" fill="#8795af"/>
  </g>
</svg>
